<mxfile host="65bd71144e">
    <diagram id="vtQquzI4iVmjjQQ1tL-T" name="Page-1">
        <mxGraphModel dx="237" dy="425" grid="1" gridSize="10" guides="1" tooltips="1" connect="1" arrows="1" fold="1" page="1" pageScale="1" pageWidth="1600" pageHeight="900" math="0" shadow="0">
            <root>
                <mxCell id="0"/>
                <mxCell id="1" parent="0"/>
                <mxCell id="7i4dBzX8qPqZhMVhaeb4-1" value="" style="rounded=0;whiteSpace=wrap;html=1;strokeColor=#666666;fillColor=#f5f5f5;fontColor=#999999;fontSize=10;" parent="1" vertex="1">
                    <mxGeometry x="95" y="41" width="360" height="259.5" as="geometry"/>
                </mxCell>
                <mxCell id="7i4dBzX8qPqZhMVhaeb4-2" value="" style="rounded=0;whiteSpace=wrap;html=1;fillColor=#fff2cc;strokeColor=#d6b656;fontSize=10;fontColor=#999999;" parent="1" vertex="1">
                    <mxGeometry x="99" y="45" width="60" height="48.5" as="geometry"/>
                </mxCell>
                <mxCell id="7i4dBzX8qPqZhMVhaeb4-3" value="" style="rounded=0;whiteSpace=wrap;html=1;fillColor=#f8cecc;strokeColor=#b85450;fontSize=10;" parent="1" vertex="1">
                    <mxGeometry x="162" y="92.5" width="60" height="56" as="geometry"/>
                </mxCell>
                <mxCell id="7i4dBzX8qPqZhMVhaeb4-4" value="" style="rounded=0;whiteSpace=wrap;html=1;fillColor=#000000;fontColor=#999999;strokeColor=none;fontSize=10;flipV=1;" parent="1" vertex="1">
                    <mxGeometry x="100" y="290" width="346" height="11" as="geometry"/>
                </mxCell>
                <mxCell id="7i4dBzX8qPqZhMVhaeb4-5" value="" style="rounded=0;whiteSpace=wrap;html=1;fillColor=#fff2cc;strokeColor=#d6b656;fontSize=10;fontColor=#999999;" parent="1" vertex="1">
                    <mxGeometry x="372" y="45" width="75" height="48.5" as="geometry"/>
                </mxCell>
                <mxCell id="7i4dBzX8qPqZhMVhaeb4-6" value="" style="rounded=0;whiteSpace=wrap;html=1;fillColor=#f8cecc;strokeColor=#b85450;fontSize=10;" parent="1" vertex="1">
                    <mxGeometry x="162" y="200" width="60" height="90" as="geometry"/>
                </mxCell>
                <mxCell id="7i4dBzX8qPqZhMVhaeb4-7" value="110" style="shape=dimension;direction=south;whiteSpace=wrap;html=1;align=right;points=[];verticalAlign=middle;labelBackgroundColor=#ffffff;strokeColor=none;fontSize=9;fontColor=#999999;" parent="1" vertex="1">
                    <mxGeometry x="55" y="290" width="40" height="11" as="geometry"/>
                </mxCell>
                <mxCell id="7i4dBzX8qPqZhMVhaeb4-8" value="myčka" style="rounded=0;whiteSpace=wrap;html=1;fillColor=#f8cecc;strokeColor=#b85450;fontColor=#999999;fontSize=10;verticalAlign=top;" parent="1" vertex="1">
                    <mxGeometry x="282.5" y="212" width="60" height="78" as="geometry"/>
                </mxCell>
                <mxCell id="7i4dBzX8qPqZhMVhaeb4-9" value="3480" style="shape=dimension;direction=east;whiteSpace=wrap;html=1;align=center;points=[];verticalAlign=bottom;spacingTop=-8;labelBackgroundColor=#ffffff;strokeColor=#999999;fontSize=9;fontColor=#999999;" parent="1" vertex="1">
                    <mxGeometry x="99" y="285" width="346" height="35" as="geometry"/>
                </mxCell>
                <mxCell id="7i4dBzX8qPqZhMVhaeb4-10" value="600" style="shape=dimension;direction=west;whiteSpace=wrap;html=1;align=center;points=[];verticalAlign=middle;labelBackgroundColor=#ffffff;strokeColor=#999999;fontSize=9;fontColor=#999999;" parent="1" vertex="1">
                    <mxGeometry x="162" y="10" width="60" height="30" as="geometry"/>
                </mxCell>
                <mxCell id="7i4dBzX8qPqZhMVhaeb4-11" value="605" style="shape=dimension;direction=south;whiteSpace=wrap;html=1;align=left;points=[];verticalAlign=middle;labelBackgroundColor=#ffffff;strokeColor=#999999;flipV=1;flipH=1;fontSize=9;fontColor=#999999;" parent="1" vertex="1">
                    <mxGeometry x="450" y="148" width="25" height="60.5" as="geometry"/>
                </mxCell>
                <mxCell id="7i4dBzX8qPqZhMVhaeb4-12" value="2595" style="shape=dimension;direction=south;whiteSpace=wrap;html=1;align=left;points=[];verticalAlign=middle;labelBackgroundColor=#ffffff;strokeColor=#999999;fontSize=9;fontColor=#999999;" parent="1" vertex="1">
                    <mxGeometry x="10" y="41" width="85" height="259.5" as="geometry"/>
                </mxCell>
                <mxCell id="7i4dBzX8qPqZhMVhaeb4-13" value="1960" style="shape=dimension;direction=south;whiteSpace=wrap;html=1;align=left;points=[];verticalAlign=middle;labelBackgroundColor=#ffffff;strokeColor=#999999;fontSize=9;fontColor=#999999;" parent="1" vertex="1">
                    <mxGeometry x="65" y="93.5" width="30" height="196" as="geometry"/>
                </mxCell>
                <mxCell id="7i4dBzX8qPqZhMVhaeb4-14" value="odpad&lt;br style=&quot;font-size: 10px;&quot;&gt;směsný/plast/papír&lt;div&gt;/sklo&lt;span style=&quot;background-color: initial;&quot;&gt;kov&lt;/span&gt;&lt;/div&gt;" style="rounded=0;whiteSpace=wrap;html=1;fillColor=#fff2cc;strokeColor=#d6b656;fontColor=#999999;fontSize=10;" parent="1" vertex="1">
                    <mxGeometry x="342.5" y="240" width="105" height="49.5" as="geometry"/>
                </mxCell>
                <mxCell id="7i4dBzX8qPqZhMVhaeb4-15" value="600" style="shape=dimension;direction=west;whiteSpace=wrap;html=1;align=center;points=[];verticalAlign=middle;labelBackgroundColor=#ffffff;strokeColor=#999999;fontSize=9;fontColor=#999999;" parent="1" vertex="1">
                    <mxGeometry x="282.5" y="180" width="60" height="30" as="geometry"/>
                </mxCell>
                <mxCell id="7i4dBzX8qPqZhMVhaeb4-16" value="lednice" style="rounded=0;whiteSpace=wrap;html=1;fillColor=#f8cecc;strokeColor=#b85450;fontColor=#999999;fontSize=10;" parent="1" vertex="1">
                    <mxGeometry x="99" y="93" width="60" height="197" as="geometry"/>
                </mxCell>
                <mxCell id="7i4dBzX8qPqZhMVhaeb4-17" value="" style="verticalLabelPosition=bottom;verticalAlign=top;html=1;shape=mxgraph.basic.orthogonal_triangle;strokeColor=#6c8ebf;fillColor=#dae8fc;fontSize=10;fontColor=#999999;" parent="1" vertex="1">
                    <mxGeometry x="282.5" y="209" width="60" height="81" as="geometry"/>
                </mxCell>
                <mxCell id="7i4dBzX8qPqZhMVhaeb4-18" value="" style="rounded=0;whiteSpace=wrap;html=1;fillColor=#fff2cc;strokeColor=#d6b656;fontSize=10;fontColor=#999999;" parent="1" vertex="1">
                    <mxGeometry x="162" y="45" width="60" height="48" as="geometry"/>
                </mxCell>
                <mxCell id="7i4dBzX8qPqZhMVhaeb4-19" value="" style="rounded=0;whiteSpace=wrap;html=1;fillColor=#fff2cc;strokeColor=#d6b656;fontSize=10;fontColor=#999999;" parent="1" vertex="1">
                    <mxGeometry x="222" y="45" width="75" height="48.5" as="geometry"/>
                </mxCell>
                <mxCell id="7i4dBzX8qPqZhMVhaeb4-20" value="" style="rounded=0;whiteSpace=wrap;html=1;fillColor=#fff2cc;strokeColor=#d6b656;fontSize=10;fontColor=#999999;" parent="1" vertex="1">
                    <mxGeometry x="297" y="45" width="75" height="48.5" as="geometry"/>
                </mxCell>
                <mxCell id="7i4dBzX8qPqZhMVhaeb4-21" value="750" style="shape=dimension;direction=west;whiteSpace=wrap;html=1;align=center;points=[];verticalAlign=middle;labelBackgroundColor=#ffffff;strokeColor=#999999;fontSize=9;fontColor=#999999;" parent="1" vertex="1">
                    <mxGeometry x="222" y="10" width="75" height="30" as="geometry"/>
                </mxCell>
                <mxCell id="7i4dBzX8qPqZhMVhaeb4-22" value="750" style="shape=dimension;direction=west;whiteSpace=wrap;html=1;align=center;points=[];verticalAlign=middle;labelBackgroundColor=#ffffff;strokeColor=#999999;fontSize=9;fontColor=#999999;" parent="1" vertex="1">
                    <mxGeometry x="372" y="10" width="75" height="30" as="geometry"/>
                </mxCell>
                <mxCell id="7i4dBzX8qPqZhMVhaeb4-23" value="2555" style="shape=dimension;direction=south;whiteSpace=wrap;html=1;align=left;points=[];verticalAlign=middle;labelBackgroundColor=#ffffff;strokeColor=#999999;fontSize=9;fontColor=#999999;" parent="1" vertex="1">
                    <mxGeometry x="50" y="45" width="50" height="256" as="geometry"/>
                </mxCell>
                <mxCell id="7i4dBzX8qPqZhMVhaeb4-24" value="485" style="shape=dimension;direction=south;whiteSpace=wrap;html=1;align=left;points=[];verticalAlign=middle;labelBackgroundColor=#ffffff;strokeColor=#999999;flipV=1;flipH=1;fontSize=9;fontColor=#999999;" parent="1" vertex="1">
                    <mxGeometry x="445" y="45" width="30" height="48.5" as="geometry"/>
                </mxCell>
                <mxCell id="7i4dBzX8qPqZhMVhaeb4-25" value="&lt;span style=&quot;font-size: 9px;&quot;&gt;vyklápěcí&lt;/span&gt;&lt;div style=&quot;font-size: 9px;&quot;&gt;&lt;span style=&quot;font-size: 9px;&quot;&gt;1x police&lt;/span&gt;&lt;/div&gt;" style="rounded=0;whiteSpace=wrap;html=1;fillColor=#fff2cc;strokeColor=#d6b656;fontSize=9;fontColor=#999999;" parent="1" vertex="1">
                    <mxGeometry x="222" y="93" width="75" height="54.5" as="geometry"/>
                </mxCell>
                <mxCell id="7i4dBzX8qPqZhMVhaeb4-26" value="vyklápěcí&lt;div style=&quot;font-size: 9px;&quot;&gt;1x police&lt;/div&gt;" style="rounded=0;whiteSpace=wrap;html=1;fillColor=#fff2cc;strokeColor=#d6b656;fontSize=9;fontColor=#999999;" parent="1" vertex="1">
                    <mxGeometry x="297" y="93" width="75" height="54.5" as="geometry"/>
                </mxCell>
                <mxCell id="7i4dBzX8qPqZhMVhaeb4-27" value="545" style="shape=dimension;direction=south;whiteSpace=wrap;html=1;align=left;points=[];verticalAlign=middle;labelBackgroundColor=#ffffff;strokeColor=#999999;flipV=1;flipH=1;fontSize=9;fontColor=#999999;" parent="1" vertex="1">
                    <mxGeometry x="445" y="93.5" width="30" height="54.5" as="geometry"/>
                </mxCell>
                <mxCell id="7i4dBzX8qPqZhMVhaeb4-28" value="485" style="shape=dimension;direction=south;whiteSpace=wrap;html=1;align=left;points=[];verticalAlign=middle;labelBackgroundColor=#ffffff;strokeColor=#999999;flipV=1;flipH=0;fontSize=9;fontColor=#999999;" parent="1" vertex="1">
                    <mxGeometry x="65" y="45" width="30" height="48.5" as="geometry"/>
                </mxCell>
                <mxCell id="7i4dBzX8qPqZhMVhaeb4-29" value="780" style="shape=dimension;direction=south;whiteSpace=wrap;html=1;align=left;points=[];verticalAlign=middle;labelBackgroundColor=#ffffff;strokeColor=#999999;flipV=1;flipH=1;fontSize=9;fontColor=#999999;" parent="1" vertex="1">
                    <mxGeometry x="445" y="212" width="30" height="78" as="geometry"/>
                </mxCell>
                <mxCell id="7i4dBzX8qPqZhMVhaeb4-30" value="trouba" style="rounded=0;whiteSpace=wrap;html=1;fillColor=#f8cecc;strokeColor=#b85450;fontColor=#999999;fontSize=10;" parent="1" vertex="1">
                    <mxGeometry x="162" y="148" width="60" height="60" as="geometry"/>
                </mxCell>
                <mxCell id="7i4dBzX8qPqZhMVhaeb4-31" value="výklop/&#10;mikrovlnka" style="text;overflow=hidden;rounded=0;align=center;fontSize=9;fontStyle=0;fontColor=#999999;textShadow=0;" parent="1" vertex="1">
                    <mxGeometry x="152" y="101" width="80" height="40" as="geometry"/>
                </mxCell>
                <mxCell id="7i4dBzX8qPqZhMVhaeb4-32" value="600" style="shape=dimension;direction=west;whiteSpace=wrap;html=1;align=center;points=[];verticalAlign=middle;labelBackgroundColor=#ffffff;strokeColor=#999999;fontSize=9;fontColor=#999999;" parent="1" vertex="1">
                    <mxGeometry x="99" y="10" width="60" height="30" as="geometry"/>
                </mxCell>
                <mxCell id="7i4dBzX8qPqZhMVhaeb4-33" value="" style="rounded=0;whiteSpace=wrap;html=1;fillColor=#000000;strokeColor=none;fontSize=10;fontColor=#999999;" parent="1" vertex="1">
                    <mxGeometry x="159" y="45" width="3" height="245" as="geometry"/>
                </mxCell>
                <mxCell id="7i4dBzX8qPqZhMVhaeb4-34" value="menší chladnička&#10;(+ police, celkem &#10;výška 810)" style="text;overflow=hidden;rounded=0;align=center;fontSize=8;fontStyle=0;fontColor=#999999;textShadow=0;rotation=-90;" parent="1" vertex="1">
                    <mxGeometry x="152" y="229.5" width="80" height="40" as="geometry"/>
                </mxCell>
                <mxCell id="7i4dBzX8qPqZhMVhaeb4-35" value="vyklápěcí&lt;div style=&quot;font-size: 9px;&quot;&gt;1x police&lt;/div&gt;" style="rounded=0;whiteSpace=wrap;html=1;fillColor=#fff2cc;strokeColor=#d6b656;fontSize=9;fontColor=#999999;" parent="1" vertex="1">
                    <mxGeometry x="372" y="93" width="75" height="54.5" as="geometry"/>
                </mxCell>
                <mxCell id="7i4dBzX8qPqZhMVhaeb4-36" value="750" style="shape=dimension;direction=west;whiteSpace=wrap;html=1;align=center;points=[];verticalAlign=middle;labelBackgroundColor=#ffffff;strokeColor=#999999;fontSize=9;fontColor=#999999;" parent="1" vertex="1">
                    <mxGeometry x="297" y="10" width="75" height="30" as="geometry"/>
                </mxCell>
                <mxCell id="7i4dBzX8qPqZhMVhaeb4-37" value="600" style="shape=dimension;direction=west;whiteSpace=wrap;html=1;align=center;points=[];verticalAlign=middle;labelBackgroundColor=#ffffff;strokeColor=#999999;fontSize=9;fontColor=#999999;" parent="1" vertex="1">
                    <mxGeometry x="222" y="179.5" width="60" height="30" as="geometry"/>
                </mxCell>
                <mxCell id="7i4dBzX8qPqZhMVhaeb4-38" value="1050" style="shape=dimension;direction=west;whiteSpace=wrap;html=1;align=center;points=[];verticalAlign=middle;labelBackgroundColor=#ffffff;strokeColor=#999999;fontSize=9;fontColor=#999999;" parent="1" vertex="1">
                    <mxGeometry x="342.5" y="180" width="105" height="30" as="geometry"/>
                </mxCell>
                <mxCell id="7i4dBzX8qPqZhMVhaeb4-39" value="dřez" style="rounded=0;whiteSpace=wrap;html=1;fillColor=#dae8fc;strokeColor=#6c8ebf;fontSize=10;fontColor=#999999;" parent="1" vertex="1">
                    <mxGeometry x="342.5" y="212" width="105" height="30" as="geometry"/>
                </mxCell>
                <mxCell id="7i4dBzX8qPqZhMVhaeb4-40" value="" style="rounded=0;whiteSpace=wrap;html=1;fillColor=#fff2cc;strokeColor=#d6b656;fontSize=10;verticalAlign=top;" parent="1" vertex="1">
                    <mxGeometry x="222.5" y="211.5" width="60" height="78" as="geometry"/>
                </mxCell>
                <mxCell id="7i4dBzX8qPqZhMVhaeb4-41" value="" style="rounded=0;whiteSpace=wrap;html=1;fillColor=#000000;strokeColor=none;fontSize=10;fontColor=#999999;rotation=90;" parent="1" vertex="1">
                    <mxGeometry x="333" y="97.5" width="3" height="225" as="geometry"/>
                </mxCell>
                <mxCell id="7i4dBzX8qPqZhMVhaeb4-42" value="tato řada skříněk je ve stejné rovině &#10;jako první dva bloky (pozor ale na hloubku, ta je jiná)&#10;" style="text;overflow=hidden;rounded=0;align=center;fontSize=8;fontStyle=0;fontColor=#999999;textShadow=0;" parent="1" vertex="1">
                    <mxGeometry x="239.5" y="53" width="190" height="40" as="geometry"/>
                </mxCell>
                <mxCell id="7i4dBzX8qPqZhMVhaeb4-43" value="" style="shape=corner;whiteSpace=wrap;html=1;dx=4;dy=4;fillColor=#dae8fc;strokeColor=#6c8ebf;" parent="1" vertex="1">
                    <mxGeometry x="359" y="189" width="19" height="19" as="geometry"/>
                </mxCell>
                <mxCell id="7i4dBzX8qPqZhMVhaeb4-44" value="" style="verticalLabelPosition=bottom;verticalAlign=top;html=1;shape=mxgraph.basic.drop;fillColor=#dae8fc;strokeColor=#6c8ebf;" parent="1" vertex="1">
                    <mxGeometry x="372" y="196" width="7" height="10" as="geometry"/>
                </mxCell>
                <mxCell id="f0tLCdPZ7aqmvl3l-2kI-1" value="2x zás." style="rounded=0;whiteSpace=wrap;html=1;fillColor=#f8cecc;strokeColor=#b85450;fontColor=#999999;fontSize=10;" parent="1" vertex="1">
                    <mxGeometry x="232" y="165" width="40.5" height="16" as="geometry"/>
                </mxCell>
                <mxCell id="2" value="" style="whiteSpace=wrap;html=1;" vertex="1" parent="1">
                    <mxGeometry x="70" y="190" width="120" height="60" as="geometry"/>
                </mxCell>
            </root>
        </mxGraphModel>
    </diagram>
</mxfile>